<?xml version="1.0" encoding="UTF-8" standalone="no"?>
<!-- Generator: Adobe Illustrator 16.0.4, SVG Export Plug-In . SVG Version: 6.00 Build 0)  -->

<svg
   xmlns:dc="http://purl.org/dc/elements/1.1/"
   xmlns:cc="http://creativecommons.org/ns#"
   xmlns:rdf="http://www.w3.org/1999/02/22-rdf-syntax-ns#"
   xmlns:svg="http://www.w3.org/2000/svg"
   xmlns="http://www.w3.org/2000/svg"
   xmlns:sodipodi="http://sodipodi.sourceforge.net/DTD/sodipodi-0.dtd"
   xmlns:inkscape="http://www.inkscape.org/namespaces/inkscape"
   version="1.1"
   id="circle_of_friends__x5F__orange"
   x="0px"
   y="0px"
   width="600"
   height="600.00006"
   viewBox="0 0 600.00001 600.00008"
   enable-background="new 0 0 425.197 425.197"
   xml:space="preserve"
   sodipodi:docname="logo_whitebackground.svg"
   inkscape:version="0.92.3 (2405546, 2018-03-11)"
   inkscape:export-filename="/home/amurray/Downloads/logo_400.png"
   inkscape:export-xdpi="64"
   inkscape:export-ydpi="64"><metadata
   id="metadata13"><rdf:RDF><cc:Work
       rdf:about=""><dc:format>image/svg+xml</dc:format><dc:type
         rdf:resource="http://purl.org/dc/dcmitype/StillImage" /><dc:title></dc:title></cc:Work></rdf:RDF></metadata><defs
   id="defs11">  </defs><sodipodi:namedview
   pagecolor="#ffffff"
   bordercolor="#666666"
   borderopacity="1"
   objecttolerance="10"
   gridtolerance="10"
   guidetolerance="10"
   inkscape:pageopacity="0"
   inkscape:pageshadow="2"
   inkscape:window-width="1920"
   inkscape:window-height="1016"
   id="namedview9"
   showgrid="false"
   inkscape:zoom="0.55503685"
   inkscape:cx="268.65209"
   inkscape:cy="129.3112"
   inkscape:window-x="0"
   inkscape:window-y="27"
   inkscape:window-maximized="1"
   inkscape:current-layer="circle_of_friends__x5F__orange"
   fit-margin-top="10"
   fit-margin-bottom="10"
   fit-margin-left="44"
   fit-margin-right="44"
   showguides="true"
   inkscape:guide-bbox="true" />

<rect
   style="fill:#ffffff;fill-opacity:1;stroke:none;stroke-width:30;stroke-miterlimit:4;stroke-dasharray:none;stroke-opacity:1"
   id="rect866"
   width="600"
   height="600"
   x="0"
   y="6.1035156e-05" /><path
   inkscape:connector-curvature="0"
   d="m 556,297.51273 v 63.89172 c 0,35.2842 -28.656,63.89172 -64,63.89172 -17.688,0 -32,-14.28879 -32,-31.94586 V 201.67516 C 460,113.44968 388.375,41.945858 300,41.945858 c -88.359,0 -160,71.503822 -160,159.729302 v 191.67515 c 0,17.65806 -14.313,31.94586 -32,31.94586 -35.344,0 -64,-28.60752 -64,-63.89172 v -63.89172 c 0,-35.2842 28.656,-63.89172 64,-63.89172 V 201.67516 C 108,95.823551 193.969,10 300,10 406.031,10 492,95.823551 492,201.67516 v 31.94585 c 35.344,0 64,28.60752 64,63.89172 z"
   id="path3765"
   style="fill:#77216f;fill-opacity:1;stroke-width:0.99915361"
   inkscape:export-xdpi="96"
   inkscape:export-ydpi="96" /><g
   inkscape:groupmode="layer"
   id="layer1"
   inkscape:label="Layer 1"
   transform="translate(85.79814,99.23218)" /><style
   id="style4615"
   type="text/css"> .st0{fill:#E95420;} </style><style
   id="style4658"
   type="text/css"> .st0{fill:#E95420;} </style><g
   id="g4662"
   transform="matrix(0.79731076,0,0,0.79596174,140.83526,143.30678)"
   inkscape:export-xdpi="96"
   inkscape:export-ydpi="96"> <path
   id="path4660"
   d="M 73.7,168.4 C 73.7,98.7 130.4,42.1 200,42.1 c 69.7,0 126.3,56.7 126.3,126.3 h 42.1 C 368.4,75.6 292.9,0 200,0 107.1,0 31.6,75.6 31.6,168.4 v 63.7 0 C 31.9,324.8 107.3,400 200,400 292.9,400 368.4,324.4 368.4,231.6 V 210.5 H 73.7 Z M 200,242.1 c 17.4,0 31.6,14.1 31.6,31.6 0,13.7 -8.8,25.4 -21,29.7 v 54.4 c 0,5.8 -4.7,10.5 -10.5,10.5 -5.8,0 -10.5,-4.7 -10.5,-10.5 v -54.4 c -12.3,-4.3 -21.1,-16 -21.1,-29.8 -0.1,-17.3 14.1,-31.5 31.5,-31.5 z"
   class="st0"
   inkscape:connector-curvature="0"
   style="fill:#e95420" /> </g><g
   id="g839"
   transform="matrix(0.44658608,0,0,0.44628654,-15.730266,319.38964)">
	<g
   id="g837">
		<g
   id="g829">
			<path
   id="path817"
   d="m 307.259,476.064 c -4.607,1.153 -10.684,2.375 -18.238,3.669 -7.553,1.296 -16.294,1.941 -26.223,1.941 -8.633,0 -15.901,-1.261 -21.8,-3.774 -5.9,-2.516 -10.648,-6.079 -14.244,-10.685 -3.598,-4.606 -6.188,-10.037 -7.771,-16.296 -1.584,-6.259 -2.373,-13.197 -2.373,-20.828 V 367.07 h 20.072 v 58.704 c 0,13.672 2.158,23.457 6.475,29.354 4.316,5.9 11.581,8.85 21.798,8.85 2.159,0 4.387,-0.073 6.692,-0.219 2.3,-0.141 4.457,-0.322 6.474,-0.539 2.014,-0.215 3.847,-0.43 5.504,-0.646 1.651,-0.217 2.838,-0.467 3.56,-0.754 v -94.75 h 20.073 v 108.994 z"
   inkscape:connector-curvature="0" />
			<path
   id="path819"
   d="m 356.25,372.034 c 2.444,-1.581 6.151,-3.237 11.115,-4.963 4.964,-1.728 10.684,-2.59 17.159,-2.59 8.055,0 15.217,1.439 21.475,4.315 6.258,2.88 11.547,6.907 15.863,12.089 4.318,5.178 7.589,11.367 9.82,18.561 2.228,7.196 3.346,15.107 3.346,23.739 0,9.066 -1.333,17.234 -3.993,24.498 -2.665,7.267 -6.442,13.416 -11.333,18.452 -4.892,5.038 -10.79,8.925 -17.698,11.654 -6.906,2.732 -14.676,4.101 -23.31,4.101 -9.354,0 -17.626,-0.646 -24.82,-1.94 -7.197,-1.295 -13.095,-2.59 -17.698,-3.885 V 315.269 l 20.072,-3.451 v 60.216 z m 0,89.785 c 2.014,0.577 4.854,1.116 8.525,1.618 3.668,0.505 8.235,0.755 13.706,0.755 10.791,0 19.424,-3.562 25.9,-10.683 6.474,-7.122 9.712,-17.23 9.712,-30.325 0,-5.75 -0.577,-11.146 -1.727,-16.187 -1.154,-5.035 -3.021,-9.387 -5.611,-13.057 -2.591,-3.67 -5.937,-6.546 -10.036,-8.635 -4.102,-2.083 -9.032,-3.128 -14.785,-3.128 -5.47,0 -10.505,0.938 -15.108,2.806 -4.607,1.872 -8.132,3.814 -10.576,5.826 z"
   inkscape:connector-curvature="0" />
			<path
   id="path821"
   d="m 547.042,476.064 c -4.606,1.153 -10.685,2.375 -18.239,3.669 -7.554,1.296 -16.294,1.941 -26.223,1.941 -8.635,0 -15.902,-1.261 -21.8,-3.774 -5.901,-2.516 -10.65,-6.079 -14.244,-10.685 -3.599,-4.606 -6.188,-10.037 -7.771,-16.296 -1.583,-6.259 -2.374,-13.197 -2.374,-20.828 V 367.07 h 20.074 v 58.704 c 0,13.672 2.157,23.457 6.475,29.354 4.316,5.9 11.58,8.85 21.799,8.85 2.156,0 4.387,-0.073 6.689,-0.219 2.299,-0.141 4.459,-0.322 6.475,-0.539 2.014,-0.215 3.849,-0.43 5.504,-0.646 1.652,-0.217 2.84,-0.467 3.562,-0.754 v -94.75 h 20.072 v 108.994 z"
   inkscape:connector-curvature="0" />
			<path
   id="path823"
   d="m 575.96,370.308 c 4.603,-1.15 10.715,-2.375 18.346,-3.671 7.625,-1.294 16.404,-1.941 26.33,-1.941 8.922,0 16.33,1.262 22.23,3.776 5.898,2.521 10.611,6.043 14.137,10.576 3.523,4.532 6.008,9.967 7.447,16.296 1.438,6.334 2.16,13.311 2.16,20.937 V 479.3 h -20.074 v -58.705 c 0,-6.905 -0.469,-12.804 -1.404,-17.698 -0.936,-4.888 -2.479,-8.848 -4.639,-11.868 -2.16,-3.023 -5.037,-5.216 -8.633,-6.584 -3.602,-1.368 -8.061,-2.051 -13.381,-2.051 -2.158,0 -4.393,0.074 -6.691,0.216 -2.303,0.145 -4.498,0.326 -6.582,0.54 -2.092,0.216 -3.961,0.47 -5.613,0.756 -1.655,0.29 -2.844,0.506 -3.562,0.646 V 479.3 h -20.07 V 370.308 Z"
   inkscape:connector-curvature="0" />
			<path
   id="path825"
   d="m 713.011,367.071 h 42.518 v 16.835 h -42.518 v 51.796 c 0,5.613 0.428,10.252 1.295,13.921 0.863,3.673 2.156,6.55 3.883,8.634 1.729,2.088 3.885,3.564 6.475,4.425 2.59,0.863 5.611,1.297 9.066,1.297 6.186,0 11.08,-0.682 14.676,-2.051 3.594,-1.366 6.043,-2.339 7.338,-2.913 l 4.316,16.404 c -2.016,1.007 -5.578,2.302 -10.684,3.881 -5.107,1.582 -10.898,2.375 -17.375,2.375 -7.625,0 -13.92,-0.97 -18.883,-2.913 -4.965,-1.944 -8.959,-4.856 -11.979,-8.739 -3.021,-3.888 -5.146,-8.67 -6.367,-14.354 -1.223,-5.683 -1.836,-12.267 -1.836,-19.749 V 335.775 l 20.074,-3.451 v 34.747 z"
   inkscape:connector-curvature="0" />
			<path
   id="path827"
   d="m 864.737,476.064 c -4.607,1.153 -10.684,2.375 -18.238,3.669 -7.555,1.296 -16.293,1.941 -26.221,1.941 -8.635,0 -15.902,-1.261 -21.801,-3.774 -5.9,-2.516 -10.65,-6.079 -14.248,-10.685 -3.596,-4.606 -6.186,-10.037 -7.77,-16.296 -1.584,-6.259 -2.373,-13.197 -2.373,-20.828 V 367.07 h 20.074 v 58.704 c 0,13.672 2.158,23.457 6.473,29.354 4.318,5.9 11.582,8.85 21.801,8.85 2.158,0 4.387,-0.073 6.691,-0.219 2.299,-0.141 4.455,-0.322 6.473,-0.539 2.016,-0.215 3.848,-0.43 5.506,-0.646 1.652,-0.217 2.838,-0.467 3.559,-0.754 v -94.75 h 20.074 z"
   inkscape:connector-curvature="0" />
		</g>
		<g
   id="g835">
			<circle
   id="circle831"
   r="45.325001"
   cy="357.13501"
   cx="928.61499"
   style="fill:#e95420" />
			<path
   id="path833"
   d="m 905.093,357.135 c 0,3.219 -2.609,5.828 -5.83,5.828 -3.217,0 -5.826,-2.609 -5.826,-5.828 0,-3.218 2.609,-5.827 5.826,-5.827 3.22,0 5.83,2.609 5.83,5.827 z m 33.154,28.335 c 1.609,2.786 5.172,3.741 7.959,2.133 2.787,-1.609 3.742,-5.173 2.133,-7.96 -1.609,-2.787 -5.172,-3.741 -7.959,-2.132 -2.787,1.609 -3.742,5.173 -2.133,7.959 z m 10.092,-50.842 c 1.609,-2.787 0.656,-6.351 -2.133,-7.958 -2.785,-1.609 -6.35,-0.654 -7.959,2.132 -1.609,2.787 -0.654,6.351 2.133,7.959 2.787,1.611 6.351,0.655 7.959,-2.133 z m -19.723,5.889 c 8.684,0 15.809,6.656 16.553,15.146 l 8.434,-0.132 c -0.4,-6.31 -3.137,-11.983 -7.354,-16.167 -2.232,0.862 -4.822,0.745 -7.057,-0.546 -2.236,-1.291 -3.633,-3.477 -4.002,-5.845 -2.096,-0.569 -4.301,-0.874 -6.574,-0.874 -3.988,0 -7.758,0.933 -11.105,2.592 l 4.104,7.369 c 2.126,-0.988 4.501,-1.543 7.001,-1.543 z m -16.619,16.618 c 0,-5.622 2.793,-10.592 7.066,-13.599 l -4.33,-7.237 c -5.016,3.349 -8.752,8.459 -10.328,14.448 1.865,1.503 3.061,3.805 3.061,6.388 0,2.584 -1.195,4.886 -3.061,6.389 1.576,5.99 5.312,11.1 10.328,14.45 l 4.33,-7.238 c -4.273,-3.007 -7.066,-7.977 -7.066,-13.601 z m 16.619,16.621 c -2.5,0 -4.875,-0.555 -7.002,-1.545 l -4.104,7.369 c 3.348,1.66 7.117,2.592 11.105,2.592 2.273,0 4.479,-0.304 6.574,-0.873 0.369,-2.369 1.766,-4.555 4.002,-5.845 2.234,-1.291 4.824,-1.408 7.057,-0.546 4.217,-4.186 6.953,-9.859 7.354,-16.168 l -8.434,-0.132 c -0.743,8.49 -7.868,15.148 -16.552,15.148 z"
   inkscape:connector-curvature="0"
   style="fill:#ffffff" />
		</g>
	</g>
</g><text
   xml:space="preserve"
   style="font-style:normal;font-variant:normal;font-weight:normal;font-stretch:normal;font-size:53.31544113px;line-height:1.25;font-family:sans-serif;-inkscape-font-specification:'sans-serif, Normal';font-variant-ligatures:normal;font-variant-caps:normal;font-variant-numeric:normal;font-feature-settings:normal;text-align:start;letter-spacing:0px;word-spacing:0px;writing-mode:lr-tb;text-anchor:start;fill:#000000;fill-opacity:1;stroke:none;stroke-width:0.9996646"
   x="77.980591"
   y="579.10797"
   id="text862"
   transform="scale(1.0003355,0.99966461)"><tspan
     sodipodi:role="line"
     id="tspan860"
     x="77.980591"
     y="579.10797"
     style="stroke-width:0.9996646">security podcast</tspan></text>
</svg>