<?xml version="1.0" encoding="UTF-8" standalone="no"?>
<!-- Generator: Adobe Illustrator 16.0.4, SVG Export Plug-In . SVG Version: 6.00 Build 0)  -->

<svg
   xmlns:dc="http://purl.org/dc/elements/1.1/"
   xmlns:cc="http://creativecommons.org/ns#"
   xmlns:rdf="http://www.w3.org/1999/02/22-rdf-syntax-ns#"
   xmlns:svg="http://www.w3.org/2000/svg"
   xmlns="http://www.w3.org/2000/svg"
   xmlns:sodipodi="http://sodipodi.sourceforge.net/DTD/sodipodi-0.dtd"
   xmlns:inkscape="http://www.inkscape.org/namespaces/inkscape"
   version="1.1"
   id="circle_of_friends__x5F__orange"
   x="0px"
   y="0px"
   width="512"
   height="512"
   viewBox="0 0 512.00001 512.00001"
   enable-background="new 0 0 425.197 425.197"
   xml:space="preserve"
   sodipodi:docname="logo.svg"
   inkscape:version="0.92.3 (2405546, 2018-03-11)"
   inkscape:export-filename="/home/amurray/Downloads/logo_400.png"
   inkscape:export-xdpi="75"
   inkscape:export-ydpi="75"><metadata
   id="metadata13"><rdf:RDF><cc:Work
       rdf:about=""><dc:format>image/svg+xml</dc:format><dc:type
         rdf:resource="http://purl.org/dc/dcmitype/StillImage" /><dc:title></dc:title></cc:Work></rdf:RDF></metadata><defs
   id="defs11">  </defs><sodipodi:namedview
   pagecolor="#ffffff"
   bordercolor="#666666"
   borderopacity="1"
   objecttolerance="10"
   gridtolerance="10"
   guidetolerance="10"
   inkscape:pageopacity="0"
   inkscape:pageshadow="2"
   inkscape:window-width="1920"
   inkscape:window-height="1016"
   id="namedview9"
   showgrid="false"
   inkscape:zoom="1.1100737"
   inkscape:cx="128.7571"
   inkscape:cy="223.13058"
   inkscape:window-x="0"
   inkscape:window-y="27"
   inkscape:window-maximized="1"
   inkscape:current-layer="circle_of_friends__x5F__orange"
   fit-margin-top="26"
   fit-margin-bottom="26"
   fit-margin-left="0"
   fit-margin-right="0" />

<path
   inkscape:connector-curvature="0"
   d="m 512,313.7057 v 63.9346 c 0,35.30788 -28.656,63.9346 -64,63.9346 -17.688,0 -32,-14.29838 -32,-31.9673 V 217.80381 c 0,-88.2847 -71.625,-159.836511 -160,-159.836511 -88.359,0 -160,71.551811 -160,159.836511 V 409.6076 c 0,17.66992 -14.313,31.9673 -32,31.9673 -35.344,0 -64,-28.62672 -64,-63.9346 V 313.7057 C 0,278.39782 28.656,249.7711 64,249.7711 V 217.80381 C 64,111.88115 149.969,26 256,26 c 106.031,0 192,85.88115 192,191.80381 v 31.96729 c 35.344,0 64,28.62672 64,63.9346 z"
   id="path3765"
   style="fill:#77216f;fill-opacity:1;stroke-width:0.99948889"
   inkscape:export-xdpi="96"
   inkscape:export-ydpi="96" /><g
   inkscape:groupmode="layer"
   id="layer1"
   inkscape:label="Layer 1"
   transform="translate(41.79814,123.62683)" /><style
   id="style4615"
   type="text/css"> .st0{fill:#E95420;} </style><style
   id="style4658"
   type="text/css"> .st0{fill:#E95420;} </style><g
   id="g4662"
   transform="matrix(0.79731076,0,0,0.79649597,96.835259,167.40162)"
   inkscape:export-xdpi="96"
   inkscape:export-ydpi="96"> <path
   id="path4660"
   d="M 73.7,168.4 C 73.7,98.7 130.4,42.1 200,42.1 c 69.7,0 126.3,56.7 126.3,126.3 h 42.1 C 368.4,75.6 292.9,0 200,0 107.1,0 31.6,75.6 31.6,168.4 v 63.7 0 C 31.9,324.8 107.3,400 200,400 292.9,400 368.4,324.4 368.4,231.6 V 210.5 H 73.7 Z M 200,242.1 c 17.4,0 31.6,14.1 31.6,31.6 0,13.7 -8.8,25.4 -21,29.7 v 54.4 c 0,5.8 -4.7,10.5 -10.5,10.5 -5.8,0 -10.5,-4.7 -10.5,-10.5 v -54.4 c -12.3,-4.3 -21.1,-16 -21.1,-29.8 -0.1,-17.3 14.1,-31.5 31.5,-31.5 z"
   class="st0"
   inkscape:connector-curvature="0"
   style="fill:#e95420" /> </g></svg>