<?xml version="1.0" encoding="UTF-8" standalone="no"?>
<svg
   id="Security_Podcast_icon"
   data-name="Security Podcast icon"
   viewBox="0 0 732 732"
   version="1.1"
   sodipodi:docname="usp_logo.svg"
   inkscape:version="1.1.2 (76b9e6a115, 2022-02-25)"
   xmlns:inkscape="http://www.inkscape.org/namespaces/inkscape"
   xmlns:sodipodi="http://sodipodi.sourceforge.net/DTD/sodipodi-0.dtd"
   xmlns="http://www.w3.org/2000/svg"
   xmlns:svg="http://www.w3.org/2000/svg">
  <sodipodi:namedview
     id="namedview257"
     pagecolor="#ffffff"
     bordercolor="#666666"
     borderopacity="1.0"
     inkscape:pageshadow="2"
     inkscape:pageopacity="0.0"
     inkscape:pagecheckerboard="0"
     showgrid="false"
     showguides="true"
     inkscape:guide-bbox="true"
     inkscape:zoom="0.55122951"
     inkscape:cx="87.98513"
     inkscape:cy="595.94052"
     inkscape:window-width="1920"
     inkscape:window-height="1016"
     inkscape:window-x="0"
     inkscape:window-y="0"
     inkscape:window-maximized="1"
     inkscape:current-layer="Security_Podcast_icon" />
  <defs
     id="defs152">
    <style
       id="style150">.cls-1{fill:#e95420;}.cls-2{fill:#fff;}.cls-3,.cls-4{fill:none;stroke:#000;stroke-width:10px;}.cls-3{stroke-linecap:round;stroke-linejoin:round;}.cls-4{stroke-miterlimit:10;}.cls-5{fill:#666;}</style>
  </defs>
  <title
     id="title154">Artboard 3</title>
  <path
     d="m 196.31651,664.34865 a 11.285065,11.285065 0 0 0 6.20888,-1.44734 5.2439894,5.2439894 0 0 0 2.22345,-4.71959 6.2927873,6.2927873 0 0 0 -0.71318,-3.1464 6.8276742,6.8276742 0 0 0 -1.89832,-2.09759 12.176543,12.176543 0 0 0 -2.71639,-1.47881 l -3.19883,-1.30051 a 37.578428,37.578428 0 0 1 -3.79665,-1.70954 12.92119,12.92119 0 0 1 -2.86322,-1.99271 7.4779289,7.4779289 0 0 1 -1.79344,-2.5381 8.442823,8.442823 0 0 1 -0.6188,-3.35615 7.949888,7.949888 0 0 1 2.90517,-6.64938 q 2.90517,-2.2654 8.08624,-2.2654 a 17.90298,17.90298 0 0 1 2.71638,0.19927 20.776686,20.776686 0 0 1 2.48565,0.51391 17.829564,17.829564 0 0 1 2.0976,0.71318 8.7155104,8.7155104 0 0 1 1.60466,0.83904 l -1.1327,2.7898 a 11.93532,11.93532 0 0 0 -3.47152,-1.58368 16.109535,16.109535 0 0 0 -4.41544,-0.58733 12.585575,12.585575 0 0 0 -2.97859,0.32513 6.5654747,6.5654747 0 0 0 -2.3493,1.0488 5.2439894,5.2439894 0 0 0 -1.55223,1.80393 5.5796047,5.5796047 0 0 0 -0.56635,2.61151 5.464237,5.464237 0 0 0 0.59782,2.66394 5.6844845,5.6844845 0 0 0 1.64661,1.86686 13.6973,13.6973 0 0 0 2.49614,1.43686 c 0.94392,0.41952 1.98223,0.8705 3.14639,1.33197 1.34246,0.55586 2.622,1.11173 3.81763,1.66759 a 13.938524,13.938524 0 0 1 3.14639,1.97174 8.3903831,8.3903831 0 0 1 2.0976,2.75834 9.0196618,9.0196618 0 0 1 0.79708,3.99592 8.0023278,8.0023278 0 0 1 -3.23029,6.95353 14.767074,14.767074 0 0 1 -8.74698,2.31784 23.755272,23.755272 0 0 1 -3.60786,-0.25171 23.073553,23.073553 0 0 1 -2.90517,-0.6083 18.78397,18.78397 0 0 1 -2.17101,-0.76563 12.585575,12.585575 0 0 1 -1.37393,-0.6922 l 1.0488,-2.90517 c 0.32513,0.18878 0.77611,0.41952 1.33197,0.68172 a 14.68317,14.68317 0 0 0 1.97174,0.76562 18.028836,18.028836 0 0 0 5.71595,0.86001 z"
     id="path172"
     style="stroke-width:1.0488" />
  <path
     d="m 212.73019,653.75579 a 16.193439,16.193439 0 0 1 0.9649,-5.84181 12.753382,12.753382 0 0 1 2.51711,-4.19519 9.6489405,9.6489405 0 0 1 3.54494,-2.48565 10.781642,10.781642 0 0 1 4.12178,-0.81806 9.6279646,9.6279646 0 0 1 7.46744,3.052 q 2.7898,3.07298 2.77931,9.43918 c 0,0.2622 0,0.5244 0,0.7866 0,0.2622 0,0.51391 -0.0734,0.74465 H 216.1388 a 11.232625,11.232625 0 0 0 2.31784,7.19475 c 1.43685,1.67808 3.74421,2.51712 6.90109,2.51712 a 14.001452,14.001452 0 0 0 4.13226,-0.49294 18.616162,18.616162 0 0 0 2.22346,-0.83904 l 0.58732,2.75834 a 13.162413,13.162413 0 0 1 -2.58004,0.93343 16.172463,16.172463 0 0 1 -4.46788,0.54538 14.767074,14.767074 0 0 1 -5.71595,-0.98587 10.257243,10.257243 0 0 1 -3.89104,-2.75834 10.84457,10.84457 0 0 1 -2.22345,-4.19519 19.539105,19.539105 0 0 1 -0.69221,-5.35936 z m 18.09177,-2.02418 a 10.173339,10.173339 0 0 0 -1.86686,-6.20888 6.0725397,6.0725397 0 0 0 -5.03423,-2.21297 6.7857223,6.7857223 0 0 0 -3.07298,0.68172 7.6981765,7.6981765 0 0 0 -2.34931,1.82491 8.3903831,8.3903831 0 0 0 -1.57319,2.68492 10.613835,10.613835 0 0 0 -0.67123,3.14639 z"
     id="path174"
     style="stroke-width:1.0488" />
  <path
     d="m 251.81889,667.06503 a 13.686812,13.686812 0 0 1 -5.24399,-0.93343 9.8482121,9.8482121 0 0 1 -3.76518,-2.68492 12.029712,12.029712 0 0 1 -2.29687,-4.19519 18.878362,18.878362 0 0 1 0,-10.86555 12.302399,12.302399 0 0 1 2.34931,-4.19519 10.267731,10.267731 0 0 1 3.69177,-2.73736 11.956296,11.956296 0 0 1 4.88739,-0.96489 20.399119,20.399119 0 0 1 3.85958,0.3461 9.9426039,9.9426039 0 0 1 2.7898,0.88099 l -0.83904,2.76883 a 9.6489405,9.6489405 0 0 0 -2.21296,-0.7866 14.609755,14.609755 0 0 0 -3.30371,-0.30415 7.7715923,7.7715923 0 0 0 -6.43962,2.73736 q -2.19199,2.73736 -2.19199,7.7611 a 16.780766,16.780766 0 0 0 0.49294,4.19519 8.442823,8.442823 0 0 0 1.60466,3.25128 7.4674409,7.4674409 0 0 0 2.86322,2.09759 10.487979,10.487979 0 0 0 4.25811,0.76563 10.970426,10.970426 0 0 0 3.47153,-0.47196 14.913906,14.913906 0 0 0 2.09759,-0.80758 l 0.69221,2.75834 a 11.840928,11.840928 0 0 1 -2.77932,0.95441 16.434663,16.434663 0 0 1 -3.98543,0.43 z"
     id="path176"
     style="stroke-width:1.0488" />
  <path
     d="m 283.52405,665.63867 c -0.9544,0.2622 -2.24443,0.55586 -3.84909,0.88099 a 29.68098,29.68098 0 0 1 -5.91522,0.49293 11.840928,11.840928 0 0 1 -4.78251,-0.83903 7.7401284,7.7401284 0 0 1 -3.1464,-2.3598 9.6384525,9.6384525 0 0 1 -1.69905,-3.70226 20.493511,20.493511 0 0 1 -0.5244,-4.78251 v -14.29512 h 3.20932 v 13.26729 a 22.769402,22.769402 0 0 0 0.38806,4.58325 7.5303688,7.5303688 0 0 0 1.29002,3.03103 4.960814,4.960814 0 0 0 2.28638,1.67807 9.9635799,9.9635799 0 0 0 3.42957,0.51391 28.674134,28.674134 0 0 0 3.94348,-0.24122 10.362123,10.362123 0 0 0 2.09759,-0.45098 v -22.38135 h 3.27225 z"
     id="path178"
     style="stroke-width:1.0488" />
  <path
     d="m 300.6719,640.5724 a 16.854182,16.854182 0 0 1 2.97858,0.25171 9.1664935,9.1664935 0 0 1 1.95077,0.49294 l -0.63977,2.75833 a 7.3415852,7.3415852 0 0 0 -1.60466,-0.41952 18.437867,18.437867 0 0 0 -3.14639,-0.22024 14.903418,14.903418 0 0 0 -3.32469,0.29366 9.9530919,9.9530919 0 0 0 -1.6571,0.49294 v 22.3289 h -3.19884 v -24.33211 a 25.317981,25.317981 0 0 1 3.39811,-1.11172 21.710116,21.710116 0 0 1 5.24399,-0.53489 z"
     id="path180"
     style="stroke-width:1.0488" />
  <path
     d="m 314.3692,633.34618 a 2.3912592,2.3912592 0 0 1 -0.68172,1.80393 2.464675,2.464675 0 0 1 -3.35615,0 2.4017472,2.4017472 0 0 1 -0.69221,-1.80393 2.3597952,2.3597952 0 0 1 0.69221,-1.79344 2.4332111,2.4332111 0 0 1 3.35615,0 2.3597952,2.3597952 0 0 1 0.68172,1.79344 z m -0.73416,33.17348 h -3.14639 v -25.48579 h 3.14639 z"
     id="path182"
     style="stroke-width:1.0488" />
  <path
     d="m 325.11938,641.03387 h 10.15236 v 2.68492 h -10.15236 v 13.63438 a 14.001452,14.001452 0 0 0 0.36708,3.52396 5.0447178,5.0447178 0 0 0 1.04879,2.09759 3.3561532,3.3561532 0 0 0 1.67808,0.98587 8.8099022,8.8099022 0 0 0 2.17101,0.25171 9.2294214,9.2294214 0 0 0 3.25127,-0.47196 14.441947,14.441947 0 0 0 1.92979,-0.86001 l 0.7866,2.66395 a 13.183389,13.183389 0 0 1 -6.16693,1.57319 11.159209,11.159209 0 0 1 -3.96446,-0.61879 5.6739965,5.6739965 0 0 1 -2.55906,-1.86686 7.5932967,7.5932967 0 0 1 -1.36344,-3.14639 21.867436,21.867436 0 0 1 -0.38806,-4.43642 v -23.50356 l 3.19884,-0.58732 z"
     id="path184"
     style="stroke-width:1.0488" />
  <path
     d="m 348.14049,667.06503 q -1.60466,-3.02053 -3.14639,-6.29278 -1.54174,-3.27225 -2.73737,-6.56548 -1.30051,-3.3142 -2.40174,-6.64938 -1.10124,-3.33517 -1.86686,-6.53401 h 3.3981 q 0.55586,2.37029 1.38441,5.10765 0.82855,2.73736 1.89833,5.64253 1.0488,2.90517 2.32833,5.96766 1.27953,3.06249 2.80029,6.00961 1.0488,-3.04151 1.94028,-5.74741 c 0.56635,-1.81442 1.04879,-3.60786 1.57319,-5.40131 0.5244,-1.79344 0.94392,-3.61835 1.3949,-5.48521 0.45099,-1.86686 0.90197,-3.90153 1.37393,-6.09352 h 3.20932 q -1.61515,7.1528 -3.60786,13.91755 a 121.19908,121.19908 0 0 1 -4.37349,12.36533 28.621694,28.621694 0 0 1 -1.92979,3.81762 11.10677,11.10677 0 0 1 -2.20247,2.63248 7.7506164,7.7506164 0 0 1 -2.82127,1.53125 13.109974,13.109974 0 0 1 -3.78616,0.49293 7.9918399,7.9918399 0 0 1 -2.25492,-0.29366 6.7857223,6.7857223 0 0 1 -1.25855,-0.45098 l 0.63976,-2.65346 a 5.2439894,5.2439894 0 0 0 1.11173,0.41952 6.6913305,6.6913305 0 0 0 1.89832,0.2622 9.5860127,9.5860127 0 0 0 2.49614,-0.29367 5.3908211,5.3908211 0 0 0 2.00321,-1.04879 7.3415852,7.3415852 0 0 0 1.60466,-1.84589 16.256367,16.256367 0 0 0 1.33197,-2.81078 z"
     id="path186"
     style="stroke-width:1.0488" />
  <path
     d="m 384.61768,632.06665 q 7.25768,0 10.79213,2.75834 a 9.3552771,9.3552771 0 0 1 3.55542,7.845 10.855058,10.855058 0 0 1 -1.04879,4.95033 8.4742869,8.4742869 0 0 1 -2.95761,3.30371 13.393149,13.393149 0 0 1 -4.70911,1.82491 31.694672,31.694672 0 0 1 -6.29278,0.56635 h -4.63569 v 13.20437 h -3.35615 v -33.56153 a 24.374063,24.374063 0 0 1 4.19519,-0.71319 c 1.59417,-0.0629 3.07298,-0.17829 4.45739,-0.17829 z m 0.14683,2.90517 q -1.86686,0 -3.14639,0.12585 l -2.24443,0.22025 v 15.08172 h 4.19519 a 34.788626,34.788626 0 0 0 4.90838,-0.31464 10.84457,10.84457 0 0 0 3.7442,-1.18515 5.96766,5.96766 0 0 0 2.39126,-2.39125 8.0652557,8.0652557 0 0 0 0.83904,-3.89104 7.0269458,7.0269458 0 0 0 -0.91245,-3.74421 6.8066983,6.8066983 0 0 0 -2.41224,-2.34931 10.886522,10.886522 0 0 0 -3.42957,-1.20612 22.150611,22.150611 0 0 0 -3.93299,-0.3461 z"
     id="path188"
     style="stroke-width:1.0488" />
  <path
     d="m 426.22349,653.80823 a 16.633934,16.633934 0 0 1 -0.86001,5.46424 12.218495,12.218495 0 0 1 -2.42273,4.19519 10.823594,10.823594 0 0 1 -3.67079,2.68492 11.840928,11.840928 0 0 1 -9.36576,0 10.928474,10.928474 0 0 1 -3.6708,-2.68492 12.029712,12.029712 0 0 1 -2.41223,-4.19519 17.619804,17.619804 0 0 1 0,-10.93897 12.228983,12.228983 0 0 1 2.41223,-4.19519 10.84457,10.84457 0 0 1 3.6708,-2.7059 11.840928,11.840928 0 0 1 9.36576,0 10.750178,10.750178 0 0 1 3.67079,2.7059 12.417767,12.417767 0 0 1 2.42273,4.19519 16.780766,16.780766 0 0 1 0.86001,5.47473 z m -3.3981,0 a 12.019224,12.019224 0 0 0 -2.22345,-7.61427 7.7820803,7.7820803 0 0 0 -12.02972,0 14.169259,14.169259 0 0 0 0,15.20757 7.8554961,7.8554961 0 0 0 12.02972,0 11.93532,11.93532 0 0 0 2.22345,-7.5933 z"
     id="path190"
     style="stroke-width:1.0488" />
  <path
     d="m 453.42931,665.74355 a 29.229997,29.229997 0 0 1 -3.64982,0.93343 28.621694,28.621694 0 0 1 -5.61107,0.45098 13.707788,13.707788 0 0 1 -5.10764,-0.91245 10.980914,10.980914 0 0 1 -3.94348,-2.64297 11.861904,11.861904 0 0 1 -2.55907,-4.19519 15.98368,15.98368 0 0 1 -0.91245,-5.56912 17.672244,17.672244 0 0 1 0.76562,-5.34887 12.103128,12.103128 0 0 1 2.23394,-4.19519 10.131388,10.131388 0 0 1 3.62884,-2.75834 11.536777,11.536777 0 0 1 4.90837,-0.98587 12.134592,12.134592 0 0 1 4.35251,0.71318 11.285065,11.285065 0 0 1 2.74786,1.33198 v -13.69731 l 3.19883,-0.59781 z m -3.14639,-20.07399 a 12.050688,12.050688 0 0 0 -1.11173,-0.73416 10.73969,10.73969 0 0 0 -1.55222,-0.74465 12.81631,12.81631 0 0 0 -1.9193,-0.56635 10.487979,10.487979 0 0 0 -2.17101,-0.22025 8.5477027,8.5477027 0 0 0 -3.97495,0.83904 7.0584098,7.0584098 0 0 0 -2.58004,2.24443 9.4391809,9.4391809 0 0 0 -1.43685,3.30371 17.661756,17.661756 0 0 0 -0.4405,4.0169 c 0,3.34566 0.83904,5.92571 2.51712,7.70866 a 8.6735585,8.6735585 0 0 0 6.64938,2.68493 26.660442,26.660442 0 0 0 3.82811,-0.22025 15.207569,15.207569 0 0 0 2.19199,-0.46147 z"
     id="path192"
     style="stroke-width:1.0488" />
  <path
     d="m 472.4545,667.06503 a 13.686812,13.686812 0 0 1 -5.24399,-0.93343 9.8482121,9.8482121 0 0 1 -3.76518,-2.68492 12.029712,12.029712 0 0 1 -2.29687,-4.19519 18.878362,18.878362 0 0 1 0,-10.86555 12.134592,12.134592 0 0 1 2.34931,-4.19519 10.267731,10.267731 0 0 1 3.69177,-2.73736 11.93532,11.93532 0 0 1 4.87691,-0.96489 20.430583,20.430583 0 0 1 3.87006,0.3461 9.9426039,9.9426039 0 0 1 2.7898,0.88099 l -0.83903,2.76883 a 9.6489405,9.6489405 0 0 0 -2.21297,-0.7866 14.609755,14.609755 0 0 0 -3.30371,-0.30415 7.7715923,7.7715923 0 0 0 -6.43962,2.73736 q -2.1815,2.73736 -2.19199,7.7611 a 16.780766,16.780766 0 0 0 0.49294,4.19519 8.2959913,8.2959913 0 0 0 1.60466,3.25128 7.5093928,7.5093928 0 0 0 2.85273,2.09759 10.603347,10.603347 0 0 0 4.26861,0.76563 10.970426,10.970426 0 0 0 3.54493,-0.55587 14.913906,14.913906 0 0 0 2.04516,-0.80757 l 0.6922,2.75834 a 11.840928,11.840928 0 0 1 -2.77931,0.9544 16.434663,16.434663 0 0 1 -4.00641,0.51391 z"
     id="path194"
     style="stroke-width:1.0488" />
  <path
     d="m 492.31873,640.44654 a 11.389945,11.389945 0 0 1 4.26861,0.71319 7.3415852,7.3415852 0 0 1 2.83176,1.97174 7.8659841,7.8659841 0 0 1 1.58368,2.98907 13.634372,13.634372 0 0 1 0.49294,3.74421 v 16.06758 a 13.435101,13.435101 0 0 1 -1.43686,0.31464 l -2.17101,0.37757 c -0.81806,0.12585 -1.73052,0.23073 -2.72687,0.31464 -0.99636,0.0839 -2.03467,0.12585 -3.08347,0.12585 a 14.798538,14.798538 0 0 1 -3.72323,-0.44049 8.3903831,8.3903831 0 0 1 -2.95761,-1.40539 6.6179146,6.6179146 0 0 1 -1.97174,-2.46468 8.5791667,8.5791667 0 0 1 -0.71318,-3.67079 7.4779289,7.4779289 0 0 1 0.78659,-3.55542 6.6808425,6.6808425 0 0 1 2.22346,-2.43321 9.5860127,9.5860127 0 0 1 3.36664,-1.40539 18.962266,18.962266 0 0 1 4.28958,-0.45099 c 0.46147,0 0.94392,0 1.44734,0.0734 0.50342,0.0734 1.0488,0.11537 1.47881,0.19927 0.43,0.0839 0.89147,0.16781 1.23758,0.25171 a 4.2581194,4.2581194 0 0 1 0.71318,0.22025 v -1.58368 a 16.067584,16.067584 0 0 0 -0.19927,-2.58005 5.6005807,5.6005807 0 0 0 -0.86002,-2.2654 4.7930063,4.7930063 0 0 0 -1.87734,-1.63613 7.0269458,7.0269458 0 0 0 -3.1464,-0.6083 16.466127,16.466127 0 0 0 -4.19519,0.38806 c -0.92294,0.2622 -1.59417,0.48244 -2.02418,0.63976 l -0.44049,-2.81077 a 11.914344,11.914344 0 0 1 2.58004,-0.73416 22.192563,22.192563 0 0 1 4.22665,-0.34611 z m 0.30416,23.75528 c 1.24807,0 2.33882,0 3.27225,-0.11537 a 21.752068,21.752068 0 0 0 2.39125,-0.32513 v -8.96722 a 10.1209,10.1209 0 0 0 -1.73051,-0.5244 15.354401,15.354401 0 0 0 -3.25128,-0.27269 18.553235,18.553235 0 0 0 -2.46467,0.1783 7.1318256,7.1318256 0 0 0 -2.3598,0.73416 4.9083741,4.9083741 0 0 0 -1.77246,1.56271 4.4259271,4.4259271 0 0 0 -0.69221,2.6115 5.7159485,5.7159485 0 0 0 0.46147,2.41224 3.8386003,3.8386003 0 0 0 1.33197,1.57319 6.0200998,6.0200998 0 0 0 2.0976,0.87051 12.585575,12.585575 0 0 0 2.71639,0.2622 z"
     id="path196"
     style="stroke-width:1.0488" />
  <path
     d="m 514.89935,664.25426 a 10.099924,10.099924 0 0 0 4.56227,-0.91246 3.1463936,3.1463936 0 0 0 1.79345,-3.08346 4.5412948,4.5412948 0 0 0 -0.31464,-1.77247 3.5868888,3.5868888 0 0 0 -1.0488,-1.33198 9.5860127,9.5860127 0 0 0 -1.95076,-1.1327 c -0.80758,-0.35659 -1.80394,-0.7866 -2.97859,-1.27953 -0.95441,-0.39854 -1.85637,-0.79709 -2.71639,-1.20612 a 11.536777,11.536777 0 0 1 -2.2654,-1.42636 6.1459556,6.1459556 0 0 1 -1.5732,-1.95077 5.8522922,5.8522922 0 0 1 -0.59781,-2.75834 6.1983955,6.1983955 0 0 1 2.33882,-5.03423 9.8796761,9.8796761 0 0 1 6.43962,-1.9193 17.567365,17.567365 0 0 1 4.31056,0.4405 15.637576,15.637576 0 0 1 2.39126,0.7866 l -0.74465,2.86322 a 17.714196,17.714196 0 0 0 -1.99272,-0.81807 13.183389,13.183389 0 0 0 -4.11128,-0.49293 9.1245416,9.1245416 0 0 0 -2.04516,0.22025 5.3174053,5.3174053 0 0 0 -1.70954,0.6922 3.7232325,3.7232325 0 0 0 -1.17465,1.18514 3.1988335,3.1988335 0 0 0 -0.45099,1.7515 3.7651844,3.7651844 0 0 0 0.39855,1.78295 3.9959199,3.9959199 0 0 0 1.15367,1.311 10.320171,10.320171 0 0 0 1.87735,1.0488 c 0.73416,0.32513 1.58369,0.68172 2.53809,1.0488 0.95441,0.36707 1.92979,0.79708 2.83176,1.20611 a 10.487979,10.487979 0 0 1 2.39126,1.47881 6.9640179,6.9640179 0 0 1 1.67807,2.09759 6.3871791,6.3871791 0 0 1 0.63977,3.03103 5.925708,5.925708 0 0 1 -2.59053,5.24399 12.386303,12.386303 0 0 1 -7.0689,1.77247 17.829564,17.829564 0 0 1 -5.12862,-0.56635 19.339833,19.339833 0 0 1 -2.37028,-0.87051 l 0.83903,-2.90517 a 6.460595,6.460595 0 0 0 0.63977,0.32513 c 0.33562,0.14683 0.77611,0.30415 1.33197,0.49294 a 14.295115,14.295115 0 0 0 2.00321,0.46147 15.585137,15.585137 0 0 0 2.67443,0.22025 z"
     id="path198"
     style="stroke-width:1.0488" />
  <path
     d="m 533.77771,641.03387 h 10.15237 v 2.68492 h -10.15237 v 13.63438 a 14.001452,14.001452 0 0 0 0.36708,3.52396 4.9188621,4.9188621 0 0 0 1.0488,2.09759 3.3037133,3.3037133 0 0 0 1.67808,0.98587 8.8099022,8.8099022 0 0 0 2.17101,0.25171 9.2713733,9.2713733 0 0 0 3.25127,-0.47196 14.84049,14.84049 0 0 0 1.9193,-0.86001 l 0.79709,2.66395 a 11.778,11.778 0 0 1 -2.42272,1.04879 11.966784,11.966784 0 0 1 -3.74421,0.56636 11.117258,11.117258 0 0 1 -3.96446,-0.6188 5.7054605,5.7054605 0 0 1 -2.56955,-1.86686 7.7191524,7.7191524 0 0 1 -1.35295,-3.14639 21.804508,21.804508 0 0 1 -0.39854,-4.43641 v -23.54552 l 3.20932,-0.58732 z"
     id="path200"
     style="stroke-width:1.0488" />
  <path
     class="cls-3"
     d="m 439.71,200.5 v 75 a 75.22,75.22 0 0 1 -75,75 v 0 a 75.22,75.22 0 0 1 -75,-75 v -125 a 75.22,75.22 0 0 1 75,-75 v 0 a 75.22,75.22 0 0 1 75,75 v 25"
     id="path202" />
  <path
     class="cls-3"
     d="m 439.71,200.5 v 75 a 75.22,75.22 0 0 1 -75,75 v 0 a 75.22,75.22 0 0 1 -75,-75 v -125 a 75.22,75.22 0 0 1 75,-75 v 0 a 75.22,75.22 0 0 1 75,75 v 25"
     id="path204" />
  <path
     class="cls-3"
     d="m 489.71,275.5 c 0,68.75 -56.25,125 -125,125 v 0 c -68.75,0 -125,-56.25 -125,-125"
     id="path206" />
  <path
     class="cls-3"
     d="m 386.89,250.94 a 22.19,22.19 0 1 0 -31.7,20 v 32.51 a 9.52,9.52 0 0 0 19,0 V 271 a 22.19,22.19 0 0 0 12.7,-20.06 z"
     id="path208" />
  <line
     class="cls-4"
     x1="289.70999"
     y1="200.5"
     x2="439.70999"
     y2="200.5"
     id="line210" />
  <circle
     class="cls-5"
     cx="364.70999"
     cy="100.5"
     r="5.5"
     id="circle212" />
  <circle
     class="cls-5"
     cx="389.70999"
     cy="100.5"
     r="5.5"
     id="circle214" />
  <circle
     class="cls-5"
     cx="339.70999"
     cy="100.5"
     r="5.5"
     id="circle216" />
  <circle
     class="cls-5"
     cx="364.70999"
     cy="125.5"
     r="5.5"
     id="circle218" />
  <circle
     class="cls-5"
     cx="389.70999"
     cy="125.5"
     r="5.5"
     id="circle220" />
  <circle
     class="cls-5"
     cx="339.70999"
     cy="125.5"
     r="5.5"
     id="circle222" />
  <circle
     class="cls-5"
     cx="364.70999"
     cy="150.5"
     r="5.5"
     id="circle224" />
  <circle
     class="cls-5"
     cx="389.70999"
     cy="150.5"
     r="5.5"
     id="circle226" />
  <circle
     class="cls-5"
     cx="339.70999"
     cy="150.5"
     r="5.5"
     id="circle228" />
  <circle
     class="cls-5"
     cx="364.70999"
     cy="175.5"
     r="5.5"
     id="circle230" />
  <circle
     class="cls-5"
     cx="389.70999"
     cy="175.5"
     r="5.5"
     id="circle232" />
  <circle
     class="cls-5"
     cx="414.70999"
     cy="125.5"
     r="5.5"
     id="circle234" />
  <circle
     class="cls-5"
     cx="414.70999"
     cy="150.5"
     r="5.5"
     id="circle236" />
  <circle
     class="cls-5"
     cx="414.70999"
     cy="175.5"
     r="5.5"
     id="circle238" />
  <circle
     class="cls-5"
     cx="339.70999"
     cy="175.5"
     r="5.5"
     id="circle240" />
  <circle
     class="cls-5"
     cx="314.70999"
     cy="125.5"
     r="5.5"
     id="circle242" />
  <circle
     class="cls-5"
     cx="314.70999"
     cy="150.5"
     r="5.5"
     id="circle244" />
  <circle
     class="cls-5"
     cx="314.70999"
     cy="175.5"
     r="5.5"
     id="circle246" />
  <line
     class="cls-3"
     x1="364.70999"
     y1="400.5"
     x2="364.70999"
     y2="475.5"
     id="line248" />
  <line
     class="cls-3"
     x1="289.70999"
     y1="475.5"
     x2="439.70999"
     y2="475.5"
     id="line250" />
  <line
     class="cls-3"
     x1="239.71001"
     y1="275.5"
     x2="251.33"
     y2="275.5"
     id="line252" />
  <line
     class="cls-3"
     x1="478.07999"
     y1="275.5"
     x2="489.70999"
     y2="275.5"
     id="line254" />
  <g
     id="g393"
     transform="matrix(0.03526492,0,0,-0.03526492,184.13383,619.35481)">
    <path
       d="M 2339.31,0 H 0 V 3602.73 H 2339.31 V 0"
       style="fill:#f1491c;fill-opacity:1;fill-rule:nonzero;stroke:none"
       id="path395" />
    <path
       d="m 267.434,1261.19 c 20.117,134.08 145.121,226.46 279.207,206.35 134.082,-20.12 226.468,-145.13 206.347,-279.21 C 732.871,1054.25 607.867,961.859 473.785,981.98 339.703,1002.1 247.313,1127.1 267.434,1261.19"
       style="fill:#ffffff;fill-opacity:1;fill-rule:nonzero;stroke:none"
       id="path397" />
    <path
       d="m 1292.57,1814.5 c 28.41,132.58 158.91,217.03 291.48,188.61 132.58,-28.4 217.02,-158.91 188.61,-291.48 -28.41,-132.58 -158.91,-217.02 -291.48,-188.61 -132.58,28.41 -217.02,158.91 -188.61,291.48"
       style="fill:#ffffff;fill-opacity:1;fill-rule:nonzero;stroke:none"
       id="path399" />
    <path
       d="M 1063.89,592.949 C 887.063,630.84 739.258,743.801 656.172,903.898 590.738,874.129 517.129,865.051 446.27,878.102 c 100.546,-246.84 313.726,-426.161 575.4,-482.231 57.43,-12.32 115.96,-18.293 174.32,-17.941 -45.09,59.269 -70.2,130.73 -71.88,205.25 -20.22,2.25 -40.41,5.531 -60.22,9.769"
       style="fill:#ffffff;fill-opacity:1;fill-rule:nonzero;stroke:none"
       id="path401" />
    <path
       d="m 1237.26,643.039 c 28.41,132.563 158.91,217.012 291.49,188.602 132.57,-28.411 217.01,-158.911 188.6,-291.493 -28.4,-132.57 -158.91,-217.019 -291.49,-188.609 -132.57,28.422 -217.01,158.922 -188.6,291.5"
       style="fill:#ffffff;fill-opacity:1;fill-rule:nonzero;stroke:none"
       id="path403" />
    <path
       d="m 1818.93,681.77 c 76.35,96.199 130.07,209.992 155.99,330.9 45.17,210.84 2.99,432.04 -115.75,611.48 -28.25,-66.6 -76.28,-122.96 -138.05,-161.68 66.25,-124.84 86.4,-268.98 56.71,-407.56 -14.53,-67.828 -40.21,-131.762 -76.38,-190.238 57.73,-47.391 98.58,-111.133 117.48,-182.902"
       style="fill:#ffffff;fill-opacity:1;fill-rule:nonzero;stroke:none"
       id="path405" />
    <path
       d="m 491.27,1576.82 c 6.23,0.35 12.464,0.51 18.703,0.51 24.785,0 49.562,-2.63 74.097,-7.89 40.028,-8.57 77.66,-23.74 112.078,-45.13 110.528,158.98 288.856,254.36 482.112,257.85 1.02,18.53 3.5,37.06 7.4,55.26 11.26,52.58 34.27,101.77 67.07,143.83 -308.71,24.45 -608.687,-134.86 -761.46,-404.43"
       style="fill:#ffffff;fill-opacity:1;fill-rule:nonzero;stroke:none"
       id="path407" />
    <path
       d="m 3477.8,285.422 c -108.49,0 -200.89,16.508 -277.14,49.527 -76.29,33.031 -137.99,78.61 -185.16,136.813 -47.17,58.148 -81.38,126.187 -102.6,204.027 -21.23,77.832 -31.85,161.563 -31.85,251.199 V 1955.38 h 160.4 V 948.211 c 0,-89.633 10.61,-167.102 31.84,-232.32 21.23,-65.282 50.71,-119.121 88.45,-161.582 37.74,-42.457 83.33,-73.93 136.8,-94.348 53.44,-20.449 113.22,-30.672 179.26,-30.672 66.05,0 125.79,10.223 179.27,30.672 53.44,20.418 99.06,51.891 136.8,94.348 37.74,42.461 67.22,96.3 88.45,161.582 21.23,65.218 31.85,142.687 31.85,232.32 V 1955.38 h 160.39 V 926.988 c 0,-89.636 -10.61,-173.367 -31.85,-251.199 -21.22,-77.84 -55.42,-145.879 -102.6,-204.027 C 3892.94,413.559 3831.21,367.98 3754.95,334.949 3678.66,301.93 3586.3,285.422 3477.8,285.422"
       style="fill:#231f20;fill-opacity:1;fill-rule:nonzero;stroke:none"
       id="path409" />
    <path
       d="m 4605.48,464.68 c 23.59,-7.891 58.56,-15.34 104.96,-22.41 46.37,-7.079 107.32,-10.61 182.8,-10.61 132.09,0 238.23,42.82 318.43,128.539 80.2,85.699 120.29,208.75 120.29,369.141 0,67.601 -7.07,131.68 -21.23,192.24 -14.15,60.52 -36.96,113.21 -68.4,158.04 -31.47,44.81 -72.75,80.55 -123.83,107.31 -51.12,26.72 -114.4,40.1 -189.88,40.1 -36.19,0 -70.76,-3.54 -103.78,-10.62 -33.02,-7.07 -63.68,-16.14 -91.99,-27.12 -28.3,-11.02 -53.07,-22.81 -74.3,-35.38 -21.23,-12.6 -38.92,-24.4 -53.07,-35.38 z m 0,1002.45 c 26.72,20.42 69.58,42.05 128.55,64.86 58.97,22.78 128.55,34.21 208.75,34.21 88.04,0 166.29,-15.74 234.69,-47.18 68.4,-31.47 126.19,-75.48 173.36,-132.09 47.18,-56.6 82.92,-123.83 107.32,-201.67 24.36,-77.83 36.56,-163.15 36.56,-255.92 0,-99.059 -14.55,-187.918 -43.63,-266.531 -29.12,-78.637 -69.99,-145.469 -122.66,-200.489 -52.7,-55.058 -115.57,-97.109 -188.69,-126.191 -73.12,-29.078 -154.5,-43.629 -244.13,-43.629 -108.5,0 -198.13,7.07 -268.89,21.219 -70.76,14.16 -128.96,29.082 -174.55,44.82 V 2122.85 l 153.32,28.31 v -684.03"
       style="fill:#231f20;fill-opacity:1;fill-rule:nonzero;stroke:none"
       id="path411" />
    <path
       d="M 6735.62,363.262 C 6690,350.648 6628.67,336.5 6551.64,320.801 c -77.06,-15.699 -171.41,-23.59 -283.04,-23.59 -91.23,0 -167.48,13.379 -228.81,40.098 -61.32,26.722 -110.85,64.461 -148.59,113.222 -37.74,48.719 -64.87,107.688 -81.38,176.899 -16.51,69.179 -24.77,145.429 -24.77,228.8 v 684.02 h 153.32 V 905.762 c 0,-86.5 6.26,-159.621 18.87,-219.371 12.56,-59.77 33.02,-108.121 61.32,-145.051 28.32,-36.969 64.87,-63.692 109.68,-80.199 44.82,-16.512 99.44,-24.762 163.94,-24.762 72.31,0 135.22,3.902 188.69,11.793 53.45,7.848 87.28,14.918 101.43,21.219 V 1540.25 h 153.32 V 363.262"
       style="fill:#231f20;fill-opacity:1;fill-rule:nonzero;stroke:none"
       id="path413" />
    <path
       d="m 7102.6,1497.79 c 45.59,12.57 106.92,26.72 183.98,42.46 77.03,15.71 171.37,23.59 283.04,23.59 92.77,0 170.2,-13.38 232.34,-40.1 62.1,-26.76 111.63,-64.86 148.59,-114.4 36.94,-49.53 63.28,-108.9 79.03,-178.08 15.69,-69.21 23.58,-145.47 23.58,-228.79 V 320.801 H 7899.84 V 952.93 c 0,86.46 -5.89,159.59 -17.69,219.36 -11.79,59.74 -31.47,108.5 -58.96,146.24 -27.54,37.74 -63.69,64.87 -108.51,81.38 -44.81,16.5 -101.05,24.77 -168.64,24.77 -72.35,0 -134.85,-3.95 -187.52,-11.8 -52.7,-7.88 -86.9,-14.96 -102.61,-21.23 V 320.801 H 7102.6 V 1497.79"
       style="fill:#231f20;fill-opacity:1;fill-rule:nonzero;stroke:none"
       id="path415" />
    <path
       d="m 8553.87,1540.25 h 485.9 v -129.72 h -485.9 V 761.871 c 0,-69.211 5.9,-125.41 17.7,-168.641 11.78,-43.269 28.67,-76.66 50.71,-100.242 22,-23.597 48.72,-39.328 80.2,-47.179 31.43,-7.879 66.04,-11.789 103.77,-11.789 64.47,0 116.35,7.441 155.68,22.402 39.29,14.937 69.95,28.68 91.99,41.277 l 37.74,-127.367 c -22.04,-14.152 -60.55,-30.293 -115.58,-48.352 -55.06,-18.058 -114.8,-27.128 -179.26,-27.128 -75.48,0 -138.8,9.847 -189.87,29.48 -51.12,19.648 -91.99,49.539 -122.66,89.629 -30.66,40.109 -52.29,90 -64.86,149.789 -12.61,59.73 -18.87,130.5 -18.87,212.281 V 1898.77 l 153.31,28.31 v -386.83"
       style="fill:#231f20;fill-opacity:1;fill-rule:nonzero;stroke:none"
       id="path417" />
    <path
       d="m 10233.3,363.262 c -45.7,-12.614 -107,-26.762 -184,-42.461 -77.08,-15.699 -171.42,-23.59 -283.05,-23.59 -91.23,0 -167.48,13.379 -228.8,40.098 -61.33,26.722 -110.86,64.461 -148.61,113.222 -37.73,48.719 -64.86,107.688 -81.36,176.899 -16.52,69.179 -24.77,145.429 -24.77,228.8 v 684.02 h 153.31 V 905.762 c 0,-86.5 6.27,-159.621 18.87,-219.371 12.57,-59.77 33.03,-108.121 61.33,-145.051 28.31,-36.969 64.86,-63.692 109.67,-80.199 44.82,-16.512 99.44,-24.762 163.94,-24.762 72.3,0 135.21,3.902 188.69,11.793 53.48,7.848 87.28,14.918 101.38,21.219 V 1540.25 h 153.4 V 363.262"
       style="fill:#231f20;fill-opacity:1;fill-rule:nonzero;stroke:none"
       id="path419" />
  </g>
</svg>
