<svg id="Security_Podcast_icon" data-name="Security Podcast icon" xmlns="http://www.w3.org/2000/svg" viewBox="0 0 732 732"><defs><style>.cls-1{fill:#e95420;}.cls-2{fill:#fff;}.cls-3,.cls-4{fill:none;stroke:#000;stroke-width:10px;}.cls-3{stroke-linecap:round;stroke-linejoin:round;}.cls-4{stroke-miterlimit:10;}.cls-5{fill:#666;}</style></defs><title>Artboard 3</title><path d="M232.13,601.9c-2.44.61-5.65,1.25-9.64,1.94a83.08,83.08,0,0,1-13.84,1,29.32,29.32,0,0,1-11.51-2,18.5,18.5,0,0,1-7.52-5.64,23,23,0,0,1-4.11-8.61,45.1,45.1,0,0,1-1.25-11V544.35h10.6v31q0,10.83,3.42,15.5t11.51,4.67c1.14,0,2.31,0,3.53-.12s2.35-.17,3.42-.28l2.91-.34a9.24,9.24,0,0,0,1.88-.4v-50h10.59V601.9Z"/><path d="M258,547a28.29,28.29,0,0,1,5.87-2.62,27.57,27.57,0,0,1,9.06-1.37,26.83,26.83,0,0,1,11.34,2.28,23.6,23.6,0,0,1,8.38,6.38,28,28,0,0,1,5.18,9.8A42.13,42.13,0,0,1,299.59,574a37.23,37.23,0,0,1-2.11,12.93,27.16,27.16,0,0,1-6,9.75,26.27,26.27,0,0,1-9.35,6.15,33.24,33.24,0,0,1-12.3,2.17,74,74,0,0,1-13.11-1c-3.8-.68-6.92-1.37-9.35-2.05V517l10.6-1.83V547Zm0,47.41a34.39,34.39,0,0,0,4.51.85,53.72,53.72,0,0,0,7.23.4q8.55,0,13.68-5.64t5.13-16a38.79,38.79,0,0,0-.91-8.55,19.17,19.17,0,0,0-3-6.89,14.28,14.28,0,0,0-5.3-4.56,17,17,0,0,0-7.8-1.65,21,21,0,0,0-8,1.48,22.05,22.05,0,0,0-5.59,3.07Z"/><path d="M358.74,601.9c-2.43.61-5.64,1.25-9.63,1.94a83.29,83.29,0,0,1-13.85,1,29.32,29.32,0,0,1-11.51-2,18.56,18.56,0,0,1-7.52-5.64,22.79,22.79,0,0,1-4.1-8.61,44.6,44.6,0,0,1-1.26-11V544.35h10.6v31q0,10.83,3.42,15.5t11.51,4.67c1.14,0,2.32,0,3.53-.12s2.36-.17,3.42-.28l2.91-.34a9.08,9.08,0,0,0,1.88-.4v-50h10.6V601.9Z"/><path d="M374,546.06q3.64-.91,9.69-1.94a84.1,84.1,0,0,1,13.9-1,30,30,0,0,1,11.74,2,18.39,18.39,0,0,1,7.46,5.58,21.71,21.71,0,0,1,3.93,8.61,49.89,49.89,0,0,1,1.14,11.05v33.28h-10.6v-31a50,50,0,0,0-.74-9.34,15.67,15.67,0,0,0-2.45-6.27,9.69,9.69,0,0,0-4.55-3.48,20.14,20.14,0,0,0-7.07-1.08c-1.14,0-2.32,0-3.53.11s-2.38.18-3.48.29-2.09.25-3,.4l-1.88.34v50H374V546.06Z"/><path d="M446.38,544.35h22.45v8.89H446.38v27.35a32.68,32.68,0,0,0,.68,7.35,11.1,11.1,0,0,0,2.05,4.56,7.32,7.32,0,0,0,3.42,2.33,15,15,0,0,0,4.79.69,22.51,22.51,0,0,0,7.75-1.08c1.89-.73,3.19-1.24,3.87-1.54l2.28,8.66a42.45,42.45,0,0,1-5.64,2.05,31.21,31.21,0,0,1-9.18,1.25,27.79,27.79,0,0,1-10-1.53,14.53,14.53,0,0,1-6.32-4.62,18.35,18.35,0,0,1-3.36-7.58,49.69,49.69,0,0,1-1-10.43V527.82l10.6-1.82v18.35Z"/><path d="M526.49,601.9c-2.43.61-5.64,1.25-9.63,1.94a83.16,83.16,0,0,1-13.84,1,29.41,29.41,0,0,1-11.52-2,18.63,18.63,0,0,1-7.52-5.64,22.94,22.94,0,0,1-4.1-8.61,44.61,44.61,0,0,1-1.25-11V544.35h10.6v31q0,10.83,3.41,15.5t11.51,4.67q1.71,0,3.54-.12c1.21-.07,2.35-.17,3.42-.28l2.9-.34a8.93,8.93,0,0,0,1.88-.4v-50h10.6Z"/><circle class="cls-1" cx="560.22" cy="539.1" r="23.93"/><path class="cls-2" d="M547.8,539.1a3.08,3.08,0,1,1-3.08-3.07A3.08,3.08,0,0,1,547.8,539.1Zm17.51,15a3.08,3.08,0,1,0,1.12-4.2A3.08,3.08,0,0,0,565.31,554.06Zm5.33-26.84a3.08,3.08,0,1,0-4.21,1.12A3.07,3.07,0,0,0,570.64,527.22Zm-10.42,3.11a8.76,8.76,0,0,1,8.74,8l4.46-.06a13.16,13.16,0,0,0-3.89-8.54,4.34,4.34,0,0,1-5.84-3.38,13.25,13.25,0,0,0-9.33.91l2.17,3.89A8.74,8.74,0,0,1,560.22,530.33Zm-8.77,8.77a8.75,8.75,0,0,1,3.73-7.18l-2.29-3.82a13.23,13.23,0,0,0-5.45,7.63,4.34,4.34,0,0,1,0,6.75,13.23,13.23,0,0,0,5.45,7.63l2.29-3.83A8.74,8.74,0,0,1,551.45,539.1Zm8.77,8.78a8.6,8.6,0,0,1-3.69-.82L554.36,551a13.25,13.25,0,0,0,9.33.91,4.33,4.33,0,0,1,2.12-3.08,4.26,4.26,0,0,1,3.72-.29,13.23,13.23,0,0,0,3.89-8.54l-4.46-.07A8.77,8.77,0,0,1,560.22,547.88Z"/><path d="M195.85,662.67a10.76,10.76,0,0,0,5.92-1.38,5,5,0,0,0,2.12-4.5,6,6,0,0,0-.68-3,6.51,6.51,0,0,0-1.81-2,11.61,11.61,0,0,0-2.59-1.41l-3.05-1.24a35.83,35.83,0,0,1-3.62-1.63,12.32,12.32,0,0,1-2.73-1.9,7.13,7.13,0,0,1-1.71-2.42,8.05,8.05,0,0,1-.59-3.2,7.58,7.58,0,0,1,2.77-6.34q2.77-2.16,7.71-2.16a17.07,17.07,0,0,1,2.59.19,19.81,19.81,0,0,1,2.37.49,17,17,0,0,1,2,.68,8.31,8.31,0,0,1,1.53.8L205,636.31a11.38,11.38,0,0,0-3.31-1.51,15.36,15.36,0,0,0-4.21-.56,12,12,0,0,0-2.84.31,6.26,6.26,0,0,0-2.24,1,5,5,0,0,0-1.48,1.72,5.32,5.32,0,0,0-.54,2.49,5.21,5.21,0,0,0,.57,2.54,5.42,5.42,0,0,0,1.57,1.78,13.06,13.06,0,0,0,2.38,1.37c.9.4,1.89.83,3,1.27,1.28.53,2.5,1.06,3.64,1.59a13.29,13.29,0,0,1,3,1.88,8,8,0,0,1,2,2.63,8.6,8.6,0,0,1,.76,3.81,7.63,7.63,0,0,1-3.08,6.63,14.08,14.08,0,0,1-8.34,2.21,22.65,22.65,0,0,1-3.44-.24,22,22,0,0,1-2.77-.58,17.91,17.91,0,0,1-2.07-.73,12,12,0,0,1-1.31-.66l1-2.77c.31.18.74.4,1.27.65a14,14,0,0,0,1.88.73,17.19,17.19,0,0,0,5.45.82Z"/><path d="M211.5,652.57a15.44,15.44,0,0,1,.92-5.57,12.16,12.16,0,0,1,2.4-4,9.2,9.2,0,0,1,3.38-2.37,10.28,10.28,0,0,1,3.93-.78,9.18,9.18,0,0,1,7.12,2.91q2.66,2.93,2.65,9c0,.25,0,.5,0,.75s0,.49-.07.71H214.75a10.71,10.71,0,0,0,2.21,6.86c1.37,1.6,3.57,2.4,6.58,2.4a13.35,13.35,0,0,0,3.94-.47,17.75,17.75,0,0,0,2.12-.8l.56,2.63a12.55,12.55,0,0,1-2.46.89,15.42,15.42,0,0,1-4.26.52,14.08,14.08,0,0,1-5.45-.94,9.78,9.78,0,0,1-3.71-2.63,10.34,10.34,0,0,1-2.12-4A18.63,18.63,0,0,1,211.5,652.57Zm17.25-1.93a9.7,9.7,0,0,0-1.78-5.92,5.79,5.79,0,0,0-4.8-2.11,6.47,6.47,0,0,0-2.93.65A7.34,7.34,0,0,0,217,645a8,8,0,0,0-1.5,2.56,10.12,10.12,0,0,0-.64,3Z"/><path d="M248.77,665.26a13.05,13.05,0,0,1-5-.89,9.39,9.39,0,0,1-3.59-2.56,11.47,11.47,0,0,1-2.19-4,18,18,0,0,1,0-10.36,11.73,11.73,0,0,1,2.24-4,9.79,9.79,0,0,1,3.52-2.61,11.4,11.4,0,0,1,4.66-.92,19.45,19.45,0,0,1,3.68.33,9.48,9.48,0,0,1,2.66.84l-.8,2.64a9.2,9.2,0,0,0-2.11-.75,13.93,13.93,0,0,0-3.15-.29,7.41,7.41,0,0,0-6.14,2.61q-2.09,2.61-2.09,7.4a16,16,0,0,0,.47,4,8.05,8.05,0,0,0,1.53,3.1,7.12,7.12,0,0,0,2.73,2,10,10,0,0,0,4.06.73,10.46,10.46,0,0,0,3.31-.45,14.22,14.22,0,0,0,2-.77l.66,2.63a11.29,11.29,0,0,1-2.65.91A15.67,15.67,0,0,1,248.77,665.26Z"/><path d="M279,663.9c-.91.25-2.14.53-3.67.84a28.3,28.3,0,0,1-5.64.47,11.29,11.29,0,0,1-4.56-.8,7.38,7.38,0,0,1-3-2.25,9.19,9.19,0,0,1-1.62-3.53,19.54,19.54,0,0,1-.5-4.56V640.44h3.06v12.65a21.71,21.71,0,0,0,.37,4.37,7.18,7.18,0,0,0,1.23,2.89,4.73,4.73,0,0,0,2.18,1.6,9.5,9.5,0,0,0,3.27.49,27.34,27.34,0,0,0,3.76-.23,9.88,9.88,0,0,0,2-.43V640.44H279Z"/><path d="M295.35,640a16.07,16.07,0,0,1,2.84.24,8.74,8.74,0,0,1,1.86.47l-.61,2.63a7,7,0,0,0-1.53-.4,17.58,17.58,0,0,0-3-.21,14.21,14.21,0,0,0-3.17.28,9.49,9.49,0,0,0-1.58.47v21.29h-3.05V641.57a24.14,24.14,0,0,1,3.24-1.06A20.7,20.7,0,0,1,295.35,640Z"/><path d="M308.41,633.11a2.28,2.28,0,0,1-.65,1.72,2.35,2.35,0,0,1-3.2,0,2.29,2.29,0,0,1-.66-1.72,2.25,2.25,0,0,1,.66-1.71,2.32,2.32,0,0,1,3.2,0A2.25,2.25,0,0,1,308.41,633.11Zm-.7,31.63h-3v-24.3h3Z"/><path d="M318.66,640.44h9.68V643h-9.68V656a13.35,13.35,0,0,0,.35,3.36,4.81,4.81,0,0,0,1,2,3.2,3.2,0,0,0,1.6.94,8.4,8.4,0,0,0,2.07.24,8.8,8.8,0,0,0,3.1-.45,13.77,13.77,0,0,0,1.84-.82l.75,2.54a12.57,12.57,0,0,1-5.88,1.5,10.64,10.64,0,0,1-3.78-.59,5.41,5.41,0,0,1-2.44-1.78,7.24,7.24,0,0,1-1.3-3,20.85,20.85,0,0,1-.37-4.23V633.3l3.05-.56Z"/><path d="M340.61,665.26q-1.53-2.88-3-6T335,653q-1.24-3.16-2.29-6.34t-1.78-6.23h3.24q.53,2.26,1.32,4.87t1.81,5.38q1,2.77,2.22,5.69t2.67,5.73q1-2.9,1.85-5.48c.54-1.73,1-3.44,1.5-5.15s.9-3.45,1.33-5.23.86-3.72,1.31-5.81h3.06q-1.54,6.82-3.44,13.27a115.56,115.56,0,0,1-4.17,11.79,27.29,27.29,0,0,1-1.84,3.64,10.59,10.59,0,0,1-2.1,2.51,7.39,7.39,0,0,1-2.69,1.46,12.5,12.5,0,0,1-3.61.47,7.62,7.62,0,0,1-2.15-.28,6.47,6.47,0,0,1-1.2-.43l.61-2.53a5,5,0,0,0,1.06.4,6.38,6.38,0,0,0,1.81.25,9.14,9.14,0,0,0,2.38-.28,5.14,5.14,0,0,0,1.91-1,7,7,0,0,0,1.53-1.76A15.5,15.5,0,0,0,340.61,665.26Z"/><path d="M375.39,631.89q6.92,0,10.29,2.63a8.92,8.92,0,0,1,3.39,7.48,10.35,10.35,0,0,1-1,4.72,8.08,8.08,0,0,1-2.82,3.15,12.77,12.77,0,0,1-4.49,1.74,30.22,30.22,0,0,1-6,.54h-4.42v12.59h-3.2v-32a23.24,23.24,0,0,1,4-.68C372.66,632,374.07,631.89,375.39,631.89Zm.14,2.77q-1.78,0-3,.12l-2.14.21v14.38h4a33.17,33.17,0,0,0,4.68-.3,10.34,10.34,0,0,0,3.57-1.13,5.69,5.69,0,0,0,2.28-2.28,7.69,7.69,0,0,0,.8-3.71,6.7,6.7,0,0,0-.87-3.57,6.49,6.49,0,0,0-2.3-2.24,10.38,10.38,0,0,0-3.27-1.15A21.12,21.12,0,0,0,375.53,634.66Z"/><path d="M415.06,652.62a15.86,15.86,0,0,1-.82,5.21,11.65,11.65,0,0,1-2.31,4,10.32,10.32,0,0,1-3.5,2.56,11.29,11.29,0,0,1-8.93,0,10.42,10.42,0,0,1-3.5-2.56,11.47,11.47,0,0,1-2.3-4,16.8,16.8,0,0,1,0-10.43,11.66,11.66,0,0,1,2.3-4,10.34,10.34,0,0,1,3.5-2.58,11.29,11.29,0,0,1,8.93,0,10.25,10.25,0,0,1,3.5,2.58,11.84,11.84,0,0,1,2.31,4A16,16,0,0,1,415.06,652.62Zm-3.24,0a11.46,11.46,0,0,0-2.12-7.26,7.42,7.42,0,0,0-11.47,0,13.51,13.51,0,0,0,0,14.5,7.49,7.49,0,0,0,11.47,0A11.38,11.38,0,0,0,411.82,652.62Z"/><path d="M441,664a27.87,27.87,0,0,1-3.48.89,27.29,27.29,0,0,1-5.35.43,13.07,13.07,0,0,1-4.87-.87,10.47,10.47,0,0,1-3.76-2.52,11.31,11.31,0,0,1-2.44-4,15.24,15.24,0,0,1-.87-5.31,16.85,16.85,0,0,1,.73-5.1,11.54,11.54,0,0,1,2.13-4,9.66,9.66,0,0,1,3.46-2.63,11,11,0,0,1,4.68-.94,11.57,11.57,0,0,1,4.15.68A10.76,10.76,0,0,1,438,641.9V628.84l3.05-.57ZM438,644.86a11.49,11.49,0,0,0-1.06-.7,10.24,10.24,0,0,0-1.48-.71,12.22,12.22,0,0,0-1.83-.54,10,10,0,0,0-2.07-.21,8.15,8.15,0,0,0-3.79.8,6.73,6.73,0,0,0-2.46,2.14,9,9,0,0,0-1.37,3.15,16.84,16.84,0,0,0-.42,3.83c0,3.19.8,5.65,2.4,7.35a8.27,8.27,0,0,0,6.34,2.56,25.42,25.42,0,0,0,3.65-.21,14.5,14.5,0,0,0,2.09-.44Z"/><path d="M459.14,665.26a13.05,13.05,0,0,1-5-.89,9.39,9.39,0,0,1-3.59-2.56,11.47,11.47,0,0,1-2.19-4,18,18,0,0,1,0-10.36,11.57,11.57,0,0,1,2.24-4,9.79,9.79,0,0,1,3.52-2.61,11.38,11.38,0,0,1,4.65-.92,19.48,19.48,0,0,1,3.69.33,9.48,9.48,0,0,1,2.66.84l-.8,2.64a9.2,9.2,0,0,0-2.11-.75,13.93,13.93,0,0,0-3.15-.29,7.41,7.41,0,0,0-6.14,2.61q-2.08,2.61-2.09,7.4a16,16,0,0,0,.47,4,7.91,7.91,0,0,0,1.53,3.1,7.16,7.16,0,0,0,2.72,2,10.11,10.11,0,0,0,4.07.73A10.46,10.46,0,0,0,463,662a14.22,14.22,0,0,0,1.95-.77l.66,2.63a11.29,11.29,0,0,1-2.65.91A15.67,15.67,0,0,1,459.14,665.26Z"/><path d="M478.08,639.88a10.86,10.86,0,0,1,4.07.68,7,7,0,0,1,2.7,1.88,7.5,7.5,0,0,1,1.51,2.85,13,13,0,0,1,.47,3.57v15.32a12.81,12.81,0,0,1-1.37.3l-2.07.36c-.78.12-1.65.22-2.6.3s-1.94.12-2.94.12a14.11,14.11,0,0,1-3.55-.42,8,8,0,0,1-2.82-1.34,6.31,6.31,0,0,1-1.88-2.35,8.18,8.18,0,0,1-.68-3.5,7.13,7.13,0,0,1,.75-3.39,6.37,6.37,0,0,1,2.12-2.32A9.14,9.14,0,0,1,475,650.6a18.08,18.08,0,0,1,4.09-.43c.44,0,.9,0,1.38.07s1,.11,1.41.19.85.16,1.18.24a4.06,4.06,0,0,1,.68.21v-1.51a15.32,15.32,0,0,0-.19-2.46,5.34,5.34,0,0,0-.82-2.16,4.57,4.57,0,0,0-1.79-1.56,6.7,6.7,0,0,0-3-.58,15.7,15.7,0,0,0-4,.37c-.88.25-1.52.46-1.93.61l-.42-2.68a11.36,11.36,0,0,1,2.46-.7A21.16,21.16,0,0,1,478.08,639.88Zm.29,22.65c1.19,0,2.23,0,3.12-.11a20.74,20.74,0,0,0,2.28-.31v-8.55a9.65,9.65,0,0,0-1.65-.5,14.64,14.64,0,0,0-3.1-.26,17.69,17.69,0,0,0-2.35.17,6.8,6.8,0,0,0-2.25.7,4.68,4.68,0,0,0-1.69,1.49,4.22,4.22,0,0,0-.66,2.49,5.45,5.45,0,0,0,.44,2.3,3.66,3.66,0,0,0,1.27,1.5,5.74,5.74,0,0,0,2,.83A12,12,0,0,0,478.37,662.53Z"/><path d="M499.61,662.58a9.63,9.63,0,0,0,4.35-.87,3,3,0,0,0,1.71-2.94,4.33,4.33,0,0,0-.3-1.69,3.42,3.42,0,0,0-1-1.27,9.14,9.14,0,0,0-1.86-1.08c-.77-.34-1.72-.75-2.84-1.22-.91-.38-1.77-.76-2.59-1.15a11,11,0,0,1-2.16-1.36,5.86,5.86,0,0,1-1.5-1.86,5.58,5.58,0,0,1-.57-2.63,5.91,5.91,0,0,1,2.23-4.8,9.42,9.42,0,0,1,6.14-1.83,16.75,16.75,0,0,1,4.11.42,14.91,14.91,0,0,1,2.28.75l-.71,2.73A16.89,16.89,0,0,0,505,643a12.57,12.57,0,0,0-3.92-.47,8.7,8.7,0,0,0-1.95.21,5.07,5.07,0,0,0-1.63.66,3.55,3.55,0,0,0-1.12,1.13,3.05,3.05,0,0,0-.43,1.67,3.59,3.59,0,0,0,.38,1.7,3.81,3.81,0,0,0,1.1,1.25,9.84,9.84,0,0,0,1.79,1c.7.31,1.51.65,2.42,1s1.84.76,2.7,1.15a10,10,0,0,1,2.28,1.41,6.64,6.64,0,0,1,1.6,2,6.09,6.09,0,0,1,.61,2.89,5.65,5.65,0,0,1-2.47,5,11.81,11.81,0,0,1-6.74,1.69,17,17,0,0,1-4.89-.54,18.44,18.44,0,0,1-2.26-.83l.8-2.77a6.16,6.16,0,0,0,.61.31c.32.14.74.29,1.27.47a13.63,13.63,0,0,0,1.91.44A14.86,14.86,0,0,0,499.61,662.58Z"/><path d="M517.61,640.44h9.68V643h-9.68V656a13.35,13.35,0,0,0,.35,3.36,4.69,4.69,0,0,0,1,2,3.15,3.15,0,0,0,1.6.94,8.4,8.4,0,0,0,2.07.24,8.84,8.84,0,0,0,3.1-.45,14.15,14.15,0,0,0,1.83-.82l.76,2.54a11.23,11.23,0,0,1-2.31,1,11.41,11.41,0,0,1-3.57.54,10.6,10.6,0,0,1-3.78-.59,5.44,5.44,0,0,1-2.45-1.78,7.36,7.36,0,0,1-1.29-3,20.79,20.79,0,0,1-.38-4.23V633.3l3.06-.56Z"/><path class="cls-3" d="M439.71,212.5v75a75.22,75.22,0,0,1-75,75h0a75.22,75.22,0,0,1-75-75v-125a75.22,75.22,0,0,1,75-75h0a75.22,75.22,0,0,1,75,75v25"/><path class="cls-3" d="M439.71,212.5v75a75.22,75.22,0,0,1-75,75h0a75.22,75.22,0,0,1-75-75v-125a75.22,75.22,0,0,1,75-75h0a75.22,75.22,0,0,1,75,75v25"/><path class="cls-3" d="M489.71,287.5c0,68.75-56.25,125-125,125h0c-68.75,0-125-56.25-125-125"/><path class="cls-3" d="M386.89,262.94a22.19,22.19,0,1,0-31.7,20v32.51a9.52,9.52,0,0,0,19,0V283A22.19,22.19,0,0,0,386.89,262.94Z"/><line class="cls-4" x1="289.71" y1="212.5" x2="439.71" y2="212.5"/><circle class="cls-5" cx="364.71" cy="112.5" r="5.5"/><circle class="cls-5" cx="389.71" cy="112.5" r="5.5"/><circle class="cls-5" cx="339.71" cy="112.5" r="5.5"/><circle class="cls-5" cx="364.71" cy="137.5" r="5.5"/><circle class="cls-5" cx="389.71" cy="137.5" r="5.5"/><circle class="cls-5" cx="339.71" cy="137.5" r="5.5"/><circle class="cls-5" cx="364.71" cy="162.5" r="5.5"/><circle class="cls-5" cx="389.71" cy="162.5" r="5.5"/><circle class="cls-5" cx="339.71" cy="162.5" r="5.5"/><circle class="cls-5" cx="364.71" cy="187.5" r="5.5"/><circle class="cls-5" cx="389.71" cy="187.5" r="5.5"/><circle class="cls-5" cx="414.71" cy="137.5" r="5.5"/><circle class="cls-5" cx="414.71" cy="162.5" r="5.5"/><circle class="cls-5" cx="414.71" cy="187.5" r="5.5"/><circle class="cls-5" cx="339.71" cy="187.5" r="5.5"/><circle class="cls-5" cx="314.71" cy="137.5" r="5.5"/><circle class="cls-5" cx="314.71" cy="162.5" r="5.5"/><circle class="cls-5" cx="314.71" cy="187.5" r="5.5"/><line class="cls-3" x1="364.71" y1="412.5" x2="364.71" y2="487.5"/><line class="cls-3" x1="289.71" y1="487.5" x2="439.71" y2="487.5"/><line class="cls-3" x1="239.71" y1="287.5" x2="251.33" y2="287.5"/><line class="cls-3" x1="478.08" y1="287.5" x2="489.71" y2="287.5"/></svg>